<?xml version="1.0" encoding="UTF-8"?>
<svg id="Layer_1" xmlns="http://www.w3.org/2000/svg" version="1.1" viewBox="0 0 300 300">
  <!-- Generator: Adobe Illustrator 29.6.0, SVG Export Plug-In . SVG Version: 2.1.1 Build 207)  -->
  <defs>
    <style>
      .st0 {
        fill: #fff;
      }
    </style>
  </defs>
  <rect x="25.04" y="25.04" width="249.93" height="249.93"/>
  <g>
    <polygon class="st0" points="64.6 160.09 60.75 165.55 83.17 165.55 83.17 172.19 52.46 172.19 52.46 165.78 52.62 165.55 56.48 160.09 66.69 145.62 74.57 134.45 52.46 134.45 52.46 127.81 83.17 127.81 83.17 133.78 82.7 134.45 74.82 145.62 64.6 160.09"/>
    <polygon class="st0" points="205.35 127.81 205.35 134.45 192.76 134.45 192.76 172.19 186.12 172.19 186.12 134.45 173.53 134.45 173.53 127.81 205.35 127.81"/>
    <path class="st0" d="M244.96,165.55l-2.13-5.47-2.59-6.64-3.05-7.83-4.35-11.17-2.37-6.08-.22-.56h-6.69l-.22.56-2.37,6.08-4.35,11.17-3.05,7.83-2.59,6.64-2.13,5.47-2.59,6.64h7.12l2.59-6.64,2.13-5.47h17.6l2.13,5.47,2.59,6.64h7.12l-2.59-6.64ZM220.69,153.45l3.05-7.83,3.16-8.11,3.16,8.11,3.05,7.83h-12.42Z"/>
    <polygon class="st0" points="127.24 127.81 123.3 134.45 116.67 145.62 112.61 152.46 112.56 152.54 112.56 172.19 104.86 172.19 104.86 152.41 100.82 145.62 94.2 134.45 90.25 127.81 97.98 127.81 101.92 134.45 104.86 139.4 108.55 145.62 108.75 145.95 108.95 145.62 112.56 139.53 115.58 134.45 119.52 127.81 127.24 127.81"/>
    <polygon class="st0" points="143.6 134.45 143.6 145.62 161.45 145.62 161.45 152.25 143.6 152.25 143.6 165.55 164.23 165.55 164.23 172.19 136.96 172.19 136.96 127.81 164.23 127.81 164.23 134.45 143.6 134.45"/>
  </g>
</svg>